<svg xmlns="http://www.w3.org/2000/svg" xmlns:xlink="http://www.w3.org/1999/xlink" viewBox="0 0 28.19 31.82"><defs><style>.cls-1{fill:#fff;}.cls-2{mask:url(#mask);}</style><mask id="mask" x="-13.64" y="-11.82" width="54.55" height="54.55" maskUnits="userSpaceOnUse"><g id="mask-2"><path id="path-1" class="cls-1" d="M-13.64,15.46A27.28,27.28,0,1,1,13.64,42.73,27.28,27.28,0,0,1-13.64,15.46Z"/></g></mask></defs><title>discord</title><g id="Layer_2" data-name="Layer 2"><g id="Layer_1-2" data-name="Layer 1"><g id="Page-1"><g id="Social_icons" data-name="Social icons"><g id="Discord"><g class="cls-2"><g id="Discord-Logo-Color"><g id="Shape"><path class="cls-1" d="M11.63,13.64A1.73,1.73,0,0,0,10,15.46a1.74,1.74,0,0,0,1.63,1.82,1.73,1.73,0,0,0,1.63-1.82A1.72,1.72,0,0,0,11.63,13.64Zm5.83,0a1.73,1.73,0,0,0-1.63,1.82,1.74,1.74,0,0,0,1.63,1.82,1.73,1.73,0,0,0,1.63-1.82A1.73,1.73,0,0,0,17.46,13.64Z"/><path class="cls-1" d="M24.88,0H3.3A3.29,3.29,0,0,0,0,3.28V24.79a3.29,3.29,0,0,0,3.3,3.28H21.57l-.86-2.95L22.77,27l1.95,1.78,3.47,3V3.28A3.29,3.29,0,0,0,24.88,0ZM18.67,20.78s-.58-.68-1.07-1.29a5.12,5.12,0,0,0,2.92-1.89,9.5,9.5,0,0,1-1.85.94,11.14,11.14,0,0,1-2.34.68,11.4,11.4,0,0,1-4.17,0,13.55,13.55,0,0,1-2.37-.69A9.21,9.21,0,0,1,8.62,18l-.15-.08s-.05,0-.06,0c-.29-.16-.45-.27-.45-.27a5,5,0,0,0,2.82,1.88L9.7,20.78a5.87,5.87,0,0,1-4.92-2.42A21.08,21.08,0,0,1,7.1,9.09a8.08,8.08,0,0,1,4.53-1.68l.16.2A10.85,10.85,0,0,0,7.55,9.69s.36-.19,1-.46a12,12,0,0,1,3.66-1,1.36,1.36,0,0,1,.27,0,14.69,14.69,0,0,1,3.26,0,13.33,13.33,0,0,1,4.85,1.53,10.9,10.9,0,0,0-4-2l.23-.26a8.08,8.08,0,0,1,4.53,1.68,21.08,21.08,0,0,1,2.32,9.27,5.9,5.9,0,0,1-4.93,2.42Z"/></g></g></g></g></g></g></g></g></svg>