<svg xmlns="http://www.w3.org/2000/svg" viewBox="0 0 27.85 27.85"><defs><style>.cls-1{fill:#fff;}</style></defs><title>Facebook</title><g id="Layer_2" data-name="Layer 2"><g id="Layer_1-2" data-name="Layer 1"><path class="cls-1" d="M27.85,1.74V26.11a1.75,1.75,0,0,1-1.74,1.74h-7V17.4h3.49l.87-4.35H19.14V11.31A2.31,2.31,0,0,1,21.76,8.7H23.5V4.35H20c-3.19,0-5.22,2.51-5.22,6.09v2.61H11.31V17.4h3.48V27.85h-13A1.75,1.75,0,0,1,0,26.11V1.74A1.74,1.74,0,0,1,1.74,0H26.11A1.75,1.75,0,0,1,27.85,1.74Z"/></g></g></svg>