<svg xmlns="http://www.w3.org/2000/svg" viewBox="0 0 26.7 26.04"><defs><style>.cls-1{fill:#fff;}</style></defs><title>github</title><g id="Layer_2" data-name="Layer 2"><g id="Layer_1-2" data-name="Layer 1"><path class="cls-1" d="M13.35,0A13.35,13.35,0,0,0,9.13,26c.67.12.88-.28.88-.63V23.07c-3.72.81-4.48-1.76-4.48-1.76A3.54,3.54,0,0,0,4,19.36c-1.21-.83.09-.81.09-.81a2.81,2.81,0,0,1,2.05,1.37A2.84,2.84,0,0,0,10.06,21a2.89,2.89,0,0,1,.85-1.78c-3-.34-6.08-1.48-6.08-6.6A5.12,5.12,0,0,1,6.21,9.07a4.76,4.76,0,0,1,.13-3.53S7.46,5.18,10,6.91a12.62,12.62,0,0,1,6.68,0c2.55-1.73,3.67-1.37,3.67-1.37a4.76,4.76,0,0,1,.13,3.53,5.11,5.11,0,0,1,1.37,3.58c0,5.13-3.12,6.26-6.09,6.59a3.14,3.14,0,0,1,.91,2.46v3.69c0,.36.22.75.9.62A13.35,13.35,0,0,0,13.35,0Z"/></g></g></svg>