<svg xmlns="http://www.w3.org/2000/svg" viewBox="0 0 29.89 26.26"><defs><style>.cls-1{fill:#fff;}</style></defs><title>reddit</title><g id="Layer_2" data-name="Layer 2"><g id="Layer_1-2" data-name="Layer 1"><path class="cls-1" d="M29.89,13.31a3.44,3.44,0,0,0-5.71-2.58,17.07,17.07,0,0,0-8.67-2.47l2-7,5,.94s0,.08,0,.12a2.2,2.2,0,1,0,.28-1.17h0L16.8,0,14.39,8.25a17.28,17.28,0,0,0-8.7,2.46,3.41,3.41,0,0,0-2.25-.84A3.44,3.44,0,0,0,1.58,16.2a6.2,6.2,0,0,0-.09,1.05c0,5,6,9,13.43,9s13.43-4,13.43-9a5.86,5.86,0,0,0-.09-1A3.42,3.42,0,0,0,29.89,13.31ZM8.54,15.66a2.12,2.12,0,1,1,2.11,2.11A2.11,2.11,0,0,1,8.54,15.66Zm11.37,5.72c-.07.07-1.58,1.61-5,1.61S10.07,21.42,10,21.36a.54.54,0,0,1,.82-.71S12,21.91,14.9,21.91a6.15,6.15,0,0,0,4.23-1.28.54.54,0,0,1,.78.75Zm-.42-3.61a2.12,2.12,0,1,1,2.11-2.11A2.11,2.11,0,0,1,19.49,17.77Z"/></g></g></svg>