<svg xmlns="http://www.w3.org/2000/svg" viewBox="0 0 27.85 23.37"><defs><style>.cls-1{fill:#fff;}</style></defs><title>telegram</title><g id="Layer_2" data-name="Layer 2"><g id="Layer_1-2" data-name="Layer 1"><path class="cls-1" d="M26,.14,8.29,7c-2.32.9-4.65,1.79-7,2.7a4,4,0,0,0-1.1.7.59.59,0,0,0,.09,1,3.4,3.4,0,0,0,.84.39l5.67,1.77a.62.62,0,0,1,.43.43c.8,2.5,1.62,5,2.42,7.49a.67.67,0,0,0,.66.51,1.63,1.63,0,0,0,1.31-.53c1-1,2.12-2.06,3.18-3.1.11.08.21.14.3.22l5.92,4.36c1.19.89,2.2.51,2.5-.92,1.28-6.06,2.57-12.08,3.85-18.13a22.4,22.4,0,0,0,.44-2.31A1.26,1.26,0,0,0,26,.14ZM22.69,4.77c-2,1.82-4,3.63-6,5.45l-5.45,4.9a1,1,0,0,0-.37.73c-.11,1.37-.24,2.75-.36,4.11a1,1,0,0,1,0,.17l-.06,0c-.43-1.26-.82-2.52-1.25-3.79-.3-.94-.59-1.89-.92-2.83a.4.4,0,0,1,.2-.56q6.66-4.17,13.3-8.39a2.48,2.48,0,0,1,.66-.31,1.26,1.26,0,0,1,.57.05A1.79,1.79,0,0,1,22.69,4.77Z"/></g></g></svg>