<svg xmlns="http://www.w3.org/2000/svg" viewBox="0 0 30.41 24.71"><defs><style>.cls-1{fill:#fff;}</style></defs><title>twitter</title><g id="Layer_2" data-name="Layer 2"><g id="Layer_1-2" data-name="Layer 1"><path class="cls-1" d="M30.41,2.92a12.34,12.34,0,0,1-3.58,1A6.35,6.35,0,0,0,29.57.46a12.65,12.65,0,0,1-4,1.51A6.24,6.24,0,0,0,14.82,6.24,6.06,6.06,0,0,0,15,7.66,17.67,17.67,0,0,1,2.12,1.14,6.23,6.23,0,0,0,4.05,9.47a6.14,6.14,0,0,1-2.83-.78v.08a6.24,6.24,0,0,0,5,6.12A6.29,6.29,0,0,1,3.41,15a6.25,6.25,0,0,0,5.83,4.33A12.56,12.56,0,0,1,1.49,22,12.17,12.17,0,0,1,0,21.91a17.65,17.65,0,0,0,9.56,2.8C21,24.71,27.32,15.21,27.32,7c0-.27,0-.54,0-.81A12.42,12.42,0,0,0,30.41,2.92Z"/></g></g></svg>