<svg xmlns="http://www.w3.org/2000/svg" xmlns:xlink="http://www.w3.org/1999/xlink" width="113" height="36" viewBox="0 0 113 36"><defs><path id="zagha" d="M348.34 1937.78l-6.02-16.48h4.2l3.97 12.13 3.95-12.13h4.05l-6.08 16.48z"/><path id="zaghb" d="M362.34 1934.74l-1.13 3.04h-4.05l6.68-16.48h4.05l6.52 16.48h-4.2l-1.1-3.04zm3.4-9.27l-2.25 6.1h4.47z"/><path id="zaghc" d="M389.34 1930.86c0 4.36-2.72 7.1-7.06 7.1-4.35 0-7.14-2.74-7.14-7.1v-9.56h3.94v9.56c0 2.24 1.35 3.6 3.23 3.6 1.85 0 3.11-1.36 3.11-3.6v-9.56h3.92z"/><path id="zaghd" d="M402.67 1934.27v3.51h-10.5v-16.48h3.94v12.97z"/><path id="zaghe" d="M411.72 1924.67v13.11h-3.94v-13.11h-4.62v-3.4h13.22v3.4z"/><path id="zaghf" d="M318.95 1915.1c4.54 0 9.24 1.65 11.74 2.68a37.48 37.48 0 0 1-1.15 8.73c-1.77 6.9-5.33 12.22-10.59 15.86-5.25-3.64-8.8-8.96-10.58-15.86a37.56 37.56 0 0 1-1.15-8.73c2.5-1.04 7.18-2.69 11.73-2.69zm0-3.56c-7.45 0-15 3.87-15 3.87s-1.96 21.08 15 31.1c16.97-10.02 15-31.1 15-31.1s-7.54-3.87-15-3.87z"/></defs><g><g transform="translate(-304 -1911)"><use fill="#3a3a3a" xlink:href="#zagha"/></g><g transform="translate(-304 -1911)"><use fill="#3a3a3a" xlink:href="#zaghb"/></g><g transform="translate(-304 -1911)"><use fill="#3a3a3a" xlink:href="#zaghc"/></g><g transform="translate(-304 -1911)"><use fill="#3a3a3a" xlink:href="#zaghd"/></g><g transform="translate(-304 -1911)"><use fill="#3a3a3a" xlink:href="#zaghe"/></g><g transform="translate(-304 -1911)"><use fill="#3a3a3a" xlink:href="#zaghf"/></g></g></svg>