<svg xmlns="http://www.w3.org/2000/svg" xmlns:xlink="http://www.w3.org/1999/xlink" width="204" height="252" viewBox="0 0 204 252"><defs><path id="e6oca" d="M1241.1 635.1h-186.5c-4.4 0-8-3.6-8-8V391c0-4.4 3.6-8 8-8h186.5c4.4 0 8 3.6 8 8v236.1c0 4.4-3.6 8-8 8z"/><path id="e6occ" d="M1101 533.3c-3.5-3.6-5.3-8.5-5.3-14.8v-17c0-2.5-.7-4.3-2.1-5.5a7.42 7.42 0 0 0-4.9-1.8v-12.1c1.8 0 3.5-.6 4.9-1.8 1.4-1.2 2.1-3 2.1-5.5v-17c0-6.2 1.8-11.2 5.3-14.8 3.5-3.6 8.5-5.4 14.9-5.4h3.7v11.9h-1.8c-2.2 0-4.1.8-5.7 2.4-1.6 1.6-2.4 3.7-2.4 6.4v16.1c0 3.7-.6 6.7-1.7 8.8-1.1 2.1-3.1 3.6-6 4.4v.9c2.9.8 4.9 2.3 6 4.4 1.1 2.1 1.7 5.1 1.7 8.8V518c0 2.7.8 4.9 2.4 6.4 1.6 1.6 3.5 2.4 5.7 2.4h1.8v11.9h-3.7c-6.4 0-11.4-1.8-14.9-5.4z"/><path id="e6ocd" d="M1175.1 538.7v-11.9h1.9c2.2 0 4.1-.8 5.6-2.4 1.5-1.6 2.3-3.7 2.3-6.4v-16c0-3.7.6-6.7 1.8-8.8 1.2-2.1 3.2-3.6 6.1-4.4v-.9c-2.9-.8-4.9-2.3-6.1-4.4-1.2-2.1-1.8-5.1-1.8-8.8v-16.1c0-2.7-.8-4.9-2.3-6.4a7.41 7.41 0 0 0-5.6-2.4h-1.9v-11.9h3.9c6.4 0 11.3 1.8 14.8 5.4 3.5 3.6 5.2 8.5 5.2 14.8v17c0 2.5.7 4.3 2.1 5.5 1.4 1.2 3.1 1.8 4.9 1.8v12.1c-1.8 0-3.5.6-4.9 1.8-1.4 1.2-2.1 3-2.1 5.5v17c0 6.2-1.7 11.2-5.2 14.8-3.5 3.6-8.4 5.4-14.8 5.4h-3.9z"/><path id="e6oce" d="M1147.5 475.4c-2.6 0-4.9-.9-6.8-2.8a9.13 9.13 0 0 1-2.8-6.8c0-2.7.9-4.9 2.8-6.8 1.9-1.9 4.1-2.8 6.8-2.8 2.6 0 4.9.9 6.7 2.8 1.8 1.9 2.8 4.1 2.8 6.8s-.9 4.9-2.8 6.8a8.91 8.91 0 0 1-6.7 2.8zm-10.2 45.4l6.5-10a9.22 9.22 0 0 1-5.8-8.7c0-2.6.9-4.9 2.8-6.7 1.9-1.8 4.1-2.8 6.8-2.8 2.6 0 4.9.9 6.7 2.8a9.3 9.3 0 0 1 2.8 6.7c0 1.4-.2 2.6-.7 3.7-.4 1.1-1.1 2.3-2.1 3.7l-10.5 15.6z"/><linearGradient id="e6ocb" x1="1017.69" x2="1292.4" y1="606.68" y2="400.65" gradientUnits="userSpaceOnUse"><stop offset="0" stop-color="#7059de"/><stop offset=".42" stop-color="#4b83e0"/><stop offset=".79" stop-color="#2fa1e2"/><stop offset="1" stop-color="#25ade3"/></linearGradient></defs><g><g transform="translate(-1046 -383)"><use fill="url(#e6ocb)" xlink:href="#e6oca"/></g><g transform="translate(-1046 -383)"/><g transform="translate(-1046 -383)"/><g transform="translate(-1046 -383)"><use fill="#fff" xlink:href="#e6occ"/></g><g transform="translate(-1046 -383)"><use fill="#fff" xlink:href="#e6ocd"/></g><g transform="translate(-1046 -383)"><use fill="#fff" xlink:href="#e6oce"/></g></g></svg>