<svg xmlns="http://www.w3.org/2000/svg" xmlns:xlink="http://www.w3.org/1999/xlink" width="381" height="140" viewBox="0 0 381 140"><defs><path id="cgs0a" d="M293.9 553.3c-.3-.4-.6-.7-.9-1.1a7 7 0 0 1-.8-1c-.2-.3-.5-.6-.7-.9-.1-.1-.2-.2-.2-.3-.2-.3-.4-.5-.6-.8-.1-.1-.1-.2-.2-.2-.2-.3-.4-.5-.6-.8-5-7.3-6.4-13.8-6.2-19.6v-.6c0-.4 0-.7.1-1.1v-.5c.4-4 1.4-7.7 2.3-11.2.3-1.1.6-2.1.8-3.2.7-2.9 1.3-5.7 1.1-8.4-.3-5.9-3.5-9.3-7.2-10.9-1-.4-2-.7-3.1-.9-2.5-.4-5.1 0-7.3.9-3.2 1.3-5.9 3.8-7 7-.1.2-.2.5-.3.7-2.4 7-10 32.6-15.1 50.2 1.3 2 2.6 3.8 3.9 5.6 1-3.5 2.2-7.5 3.5-11.8.8-2.8 1.7-5.8 2.6-8.7 1.9-6.6 3.9-13.1 5.6-18.8.3-1.1.7-2.2 1-3.2.2-.6.4-1.2.5-1.8 1.5-4.9 2.7-8.7 3.3-10.5 1.2-3.5 5.3-4.8 8.5-4.4 1.6.2 5.5 1.4 5.7 6.6.1 2.4-.5 5.1-1.3 8.2-.2.6-.3 1.2-.5 1.8-1.2 4.3-2.5 9.2-2.6 14.8-.1 3.4.3 7 1.4 10.8 0 .1 0 .1.1.2.1.4.2.8.4 1.2 0 .1.1.2.1.3.1.4.3.7.4 1.1 0 .1.1.2.1.3.1.4.3.7.5 1.1 0 .1.1.2.1.3.2.4.4.8.5 1.2 0 .1.1.1.1.2.5 1 1 2 1.5 2.9 1.6 2.8 3.6 5.7 6.2 8.7.1.1.2.2.3.4l.5.5c2.9 3.1 6.1 5.4 8.8 7.1.4.3.9.5 1.3.8 1.2-1.3 2.4-2.7 3.6-4.1-2.7-1.6-6.8-4.3-10.2-8.1z"/><path id="cgs0c" d="M303.3 548.1c-1.4-1.3-3-3-4.8-5-.4-.4-.7-.9-1-1.4-.2-.2-.3-.5-.5-.7-.1-.2-.3-.5-.4-.7-.1-.2-.3-.5-.4-.7v-.1c-.1-.2-.2-.5-.3-.8-.6-1.3-1-2.7-1.2-4.1 0-.3-.1-.5-.1-.8v-.1c0-.2-.1-.5-.1-.7v-.2c0-.2 0-.5-.1-.7v-.2-.7-.2V530.2v-1.7c.2-5.6 1.7-11.3 3-16.1 0-.2.1-.3.1-.5.6-2.2 1.1-4.2 1.5-6 .1-.3.1-.6.1-.9v-.1c0-.3.1-.5.1-.8v-.1-.7-.2V502.3v-.8-.1c-.1-1.1-.2-2.2-.5-3.3v-.1c-.1-.2-.1-.5-.2-.7v-.1c-.1-.2-.1-.4-.2-.7v-.2c-.1-.2-.1-.4-.2-.6 0 0 0-.1-.1-.1l-.3-.6s0-.1-.1-.1c-.1-.2-.2-.5-.3-.7-.3-.5-.5-1.1-.8-1.6-2.9-4.9-8-8.8-14.5-10.9-6.1-2-12.6-1.4-17.9 1.5-4.3 2.4-7.2 6.1-8.3 10.4-.2.7-.4 1.5-.6 2.3v.2c-.1.2-.1.4-.2.6 0 .1-.1.3-.1.5 0 .1-.1.2-.1.3-.9 3-2 6.6-3.3 10.3l-.3 1c-.2.5-.4 1.1-.5 1.6 0 .1-.1.2-.1.3-.1.3-.2.6-.3.8-1.3 3.9-2.6 7.9-3.6 11.6-.5 1.6-.9 3.1-1.3 4.6-.6 2.4-1.2 4.6-1.9 6.7-.6 1.8-1.1 3.4-1.7 5 1.1 2.1 2.2 4.1 3.3 6.1 1.7-3.9 3.4-8.6 4.9-14.4v-.2c.1-.5.2-.9.4-1.4 0-.1.1-.3.1-.4 1.4-5.6 3.6-12.2 5.7-18.6.8-2.5 1.6-5 2.4-7.3 0-.1 0-.1.1-.2 0-.1.1-.3.1-.4.9-2.8 1.7-5.4 2.2-7.6.7-2.9 2.7-5.4 5.7-7 4-2.2 9-2.6 13.7-1.1 4 1.3 7.3 3.3 9.6 5.8 2.6 2.8 4 6.1 4 9.6v1c0 .2 0 .5-.1.7v.1c0 .3-.1.5-.1.8-.3 1.7-.9 3.8-1.5 6.1-.1.3-.2.6-.2.9-1.3 4.8-2.8 10.7-3 16.6-.2 6.3 1.1 12.7 5.6 18.1.5.5.9 1.1 1.4 1.6 4.7 5.3 8.7 8 11.6 9.4 1.1-1.4 2.1-2.9 3.2-4.4-1.8-.7-4.3-2.1-7.6-5.1z"/><path id="cgs0e" d="M260.3 566l.4-1.3 3.8-13.3 1-3.3 5.6-19.5.1-.2 4.8-16.6 2.2-7.5c.4-1.4-.4-2.9-1.8-3.3-1.4-.4-2.9.4-3.3 1.8l-2.6 9-4.8 16.6-2.2 7.6-1.1 3.8-3.5 12-2.7 9.3c1.3 1.8 2.7 3.4 4.1 4.9z"/><path id="cgs0g" d="M289.6 576.2c-.1 0-.1-.1-.2-.1-1.3-.3-5.7-4.2-9.3-8.3-.6-.7-1.5-1-2.5-.9-.9.2-1.7.8-2 1.7l-3.4 8.7c1.7 1.4 3.2 2.5 4.4 3.4l2.4-6.1c1.8 1.8 4 3.9 6 5.3 1.4-1.1 3-2.3 4.6-3.7z"/><path id="cgs0i" d="M292.5 564.7c-1.4-1-2.7-2.1-3.9-3.2l-.5-.5c-.2-.2-.4-.4-.6-.5l-.6-.6-.3-.3c-4.3-4.4-6.9-8.7-8.4-11.5-1-1.9-1.4-3.1-1.4-3.1-.4-1.1-1.4-1.8-2.5-1.8-1 0-1.9.6-2.4 1.5-.1.1-.1.3-.2.4l-1 3.1-5.2 16.6-.1.3-.5 1.5-1.1 3.4c1.5 1.5 3 2.8 4.3 4.1l2.2-7.1.7-2.1 3.6-11.6c1.9 3.3 4.9 7.5 9.3 11.6.3.3.6.5.9.8.1.1.3.2.4.4 2.5 2.2 5.4 4.4 8.7 6.3 1.3-1.2 2.6-2.5 4-3.9-1.9-1.3-3.7-2.5-5.4-3.8z"/><path id="cgs0k" d="M234.4 509.4l.3-1c.2-.8.5-1.5.7-2.3.1-.3.2-.5.2-.8.1-.2.1-.4.2-.5 1.7-5.5 3.4-10.9 5-15.4 0-.1.1-.2.1-.3.6-1.8 1.2-3.4 1.7-4.8 1.4-3.7 4.7-6.9 8.6-9.5-2.5-.2-5-.5-7.6-.9-2.7 2.5-4.8 5.3-6 8.4-.8 2-1.6 4.4-2.5 7l-.3.9c-.1.2-.1.3-.2.5-1.4 4.3-3 9.1-4.5 14 .6 3.7 1.4 7.3 2.3 10.7.8-1.9 1.4-3.9 2-6z"/><path id="cgs0m" d="M315.6 544.9c-3.8-1.6-8.9-5.1-11.3-12.1-.5-1.3-.6-2.8-.7-4.3v-1.3c0-.4.1-.8.1-1.2v-.1c0-.3.1-.7.1-1 0-.2 0-.3.1-.5 0-.3.1-.5.1-.8 0-.2.1-.5.1-.7 0-.2.1-.5.1-.7.1-.3.1-.6.2-.8 0-.2.1-.4.1-.6.1-.3.1-.6.2-1 0-.2.1-.4.1-.6.1-.3.2-.6.2-1 .1-.2.1-.4.2-.6.1-.5.2-1 .4-1.4.1-.6.3-1.2.4-1.8.3-1.2.6-2.5.9-3.8v-.1c.1-.4.2-.8.2-1.2 0-.1 0-.2.1-.3.1-.3.1-.6.2-1 0-.2 0-.3.1-.5 0-.3.1-.5.1-.8 0-.2.1-.4.1-.6 0-.2.1-.5.1-.7 0-.2 0-.4.1-.6 0-.2 0-.4.1-.6 0-.2 0-.5.1-.7v-.6-.7-.5-.8-.5-.8-.5c0-.3 0-.6-.1-.9v-.4c0-.3-.1-.6-.1-.9 0-.1 0-.3-.1-.4-.1-.3-.1-.6-.2-.9 0-.1 0-.2-.1-.3-.1-.3-.1-.7-.2-1v-.1c-.1-.2-.1-.5-.2-.7l-.3-.9c-2.5-7.5-7.3-13-12.7-16.6-.5-.4-1.1-.7-1.6-1-6.9-.4-11.7-1.3-12.2-1.4-.7.1-10.1 1.8-22 1.6-.4.3-.9.5-1.3.8-4.8 3.1-8.7 7.2-10.6 12-.8 2-1.6 4.4-2.5 7l-.3.9c-.1.2-.1.3-.2.5-2.8 8.3-5.9 18.6-8.4 27 1 2.9 2 5.6 3.2 8.3 1.3-4.6 3.1-10.6 4.9-16.7l.3-1c.2-.8.5-1.5.7-2.3.1-.3.2-.5.2-.8.1-.2.1-.4.2-.5 1.7-5.5 3.4-10.9 5-15.4 0-.1.1-.2.1-.3.6-1.8 1.2-3.4 1.7-4.8 2.6-6.7 11.2-12 19-13.9 2.7-.6 5.2-.8 7.5-.6 1 .1 2.1.3 3.2.6 7.6 1.8 16.2 6.9 20.2 16.6l.9 2.4c1.6 5.3.6 11.1-.7 16.8-.2 1-.5 2-.7 3-1.2 4.7-2.3 9.3-2.2 13.6 0 2 .3 4 .9 6 0 .1.1.2.1.3.1.2.2.4.2.7.1.2.1.3.2.5 0 .1 0 .1.1.2 2.4 6 6.5 9.7 10.2 12 .7.4 1.5.8 2.2 1.2.2.1.4.2.7.3 1-1.5 1.9-3 2.8-4.6-.2 0-.2 0-.3-.1z"/><path id="cgs0o" d="M315.4 527.5c-.5-1.3-.6-2.8-.7-4.3v-1.3c0-.4.1-.8.1-1.2v-.1c0-.3.1-.7.1-1 0-.2 0-.3.1-.5 0-.3.1-.5.1-.8 0-.2.1-.5.1-.7 0-.2.1-.5.1-.7.1-.3.1-.6.2-.8 0-.2.1-.4.1-.6.1-.3.1-.6.2-1 0-.2.1-.4.1-.6.1-.3.2-.6.2-1 .1-.2.1-.4.2-.6.1-.5.2-1 .4-1.4.1-.6.3-1.2.4-1.8.3-1.2.6-2.5.9-3.8v-.1c.1-.4.2-.8.2-1.2 0-.1 0-.2.1-.3.1-.3.1-.6.2-1 0-.2 0-.3.1-.5 0-.3.1-.5.1-.8 0-.2.1-.4.1-.6 0-.2.1-.5.1-.7 0-.2 0-.4.1-.6 0-.2 0-.4.1-.6 0-.2 0-.5.1-.7v-.6-.7-.5-.8-.5-.8-.5c0-.3 0-.6-.1-.9v-.4c0-.3-.1-.6-.1-.9 0-.1 0-.3-.1-.4-.1-.3-.1-.6-.2-.9 0-.1 0-.2-.1-.3-.1-.3-.1-.7-.2-1v-.1c-.1-.2-.1-.5-.2-.7l-.3-.9c-1.7-5.1-4.5-9.3-7.7-12.5-2.7.2-5.4.4-7.9.4 4.1 2.8 7.7 6.7 10 12.1l.9 2.4c1.6 5.3.6 11.1-.7 16.8-.2 1-.5 2-.7 3-1.2 4.7-2.3 9.3-2.2 13.6 0 2 .3 4 .9 6 0 .1.1.2.1.3.1.2.2.4.2.7.1.2.1.3.2.5 0 .1 0 .1.1.2 1.8 4.4 4.5 7.6 7.3 9.9.8-1.6 1.7-3.3 2.5-5-2.4-1.9-4.3-4.5-5.5-8.2z"/><path id="cgs0q" d="M239 473.1c-1.8-.4-3.7-.9-5.5-1.5-2 2.8-3.7 5.8-5.2 8.8 0 4.5.1 8.9.5 13 .3-.8.5-1.7.8-2.5 0-.1 0-.1.1-.2.2-.6.5-1.3.7-1.9.1-.2.2-.5.3-.7.2-.6.4-1.1.7-1.7 0 0 0-.1.1-.1 1.3-3 2.8-6 4.6-8.9.8-1.4 1.8-2.9 2.9-4.3z"/><path id="cgs0s" d="M331 496.5c.3-6.7-2.3-13.7-7.3-19.8-.5-.7-1.1-1.4-1.7-2l-.9-.9-.4-.4c-2.2.5-4.5.8-6.7 1.1.1.1.2.1.3.2 1.1.9 2.1 1.8 3.1 2.8 2.8 2.9 5 6 6.4 9.2 1.1 2.4 1.7 4.8 1.9 7.2 0 .4 0 .7.1 1.1v1.3c0 .7-.1 1.4-.1 2.1v.5c-.1.7-.1 1.4-.2 2l-.3 2c0 .2-.1.3-.1.5l-.3 1.9c-.1.7-.2 1.3-.4 2 0 .1 0 .2-.1.4-.4 2-.9 4-1.3 5.8-1.7 7.2-3.2 13.8-.6 18.7 1.9-4.3 3.5-8.9 5-13.8.2-1.1.5-2.3.8-3.6 1.1-5.4 2.5-11.5 2.8-18.3z"/><path id="cgs0u" d="M335.3 459.8c-.7 0-1.4.1-2 .4-8.6 3.6-19.3 5.4-32 5.4-10.6 0-19-1.3-20.5-1.6-.4-.1-.8-.1-1.2-.1h-.1c-.4 0-.8 0-1.2.1-1.6.3-9.9 1.6-20.5 1.6-12.6 0-23.4-1.8-32-5.4-.6-.3-1.3-.4-2-.4-.9 0-1.9.3-2.7.8a5.6 5.6 0 0 0-2.5 4c-6.5 84.2 51.3 122.8 57.7 126.8.2.1.4.3.6.4.8.5 1.7.7 2.6.7.9 0 1.8-.2 2.6-.7.2-.1.4-.2.6-.4 6.4-4 64.2-42.5 57.7-126.8-.1-1.7-1-3.2-2.5-4-.7-.6-1.6-.8-2.6-.8zm0 5.2c6.5 84.4-53.7 121-55.7 122.2-2-1.2-62.2-37.8-55.7-122.2 10.9 4.6 23.5 5.8 34 5.8 11.9 0 21-1.6 21.7-1.7.7.1 9.8 1.7 21.7 1.7 10.5 0 23.1-1.2 34-5.8"/><path id="cgs0w" d="M383.1 468.7l13 68.6 12.7-68.6H420l-16.6 92.5H389l-17-92.5h11.1z"/><path id="cgs0x" d="M448.7 527.3l-5.8-27.9c-1.8 9.1-3.4 17.7-5.4 27.9zm7.4 33.9l-5.3-22.9h-15.3l-5.1 22.9h-11.2l18.7-92.5H448l19.4 92.5z"/><path id="cgs0y" d="M504.3 542.4v-73.7h11v73.7c0 10.6-9.4 19.4-20.7 19.4-11.2 0-20.5-8.7-20.5-19.4v-73.7H485v73.7c0 4.6 4.4 8.5 9.6 8.5 5.2 0 9.7-3.9 9.7-8.5z"/><path id="cgs0z" d="M559.1 561.2h-30.2v-92.5h10.9v81.7h19.4v10.8z"/><path id="cgs0A" d="M584.5 561.2h-10.9v-81.7h-14.7v-10.9H599v10.9h-14.5z"/><linearGradient id="cgs0b" x1="202.15" x2="390.72" y1="577.23" y2="468.37" gradientUnits="userSpaceOnUse"><stop offset="0" stop-color="#7059de"/><stop offset=".42" stop-color="#4b83e0"/><stop offset=".79" stop-color="#2fa1e2"/><stop offset="1" stop-color="#25ade3"/></linearGradient><linearGradient id="cgs0d" x1="199.14" x2="386.08" y1="570.36" y2="462.43" gradientUnits="userSpaceOnUse"><stop offset="0" stop-color="#7059de"/><stop offset=".42" stop-color="#4b83e0"/><stop offset=".79" stop-color="#2fa1e2"/><stop offset="1" stop-color="#25ade3"/></linearGradient><linearGradient id="cgs0f" x1="198.35" x2="389.8" y1="573.44" y2="462.9" gradientUnits="userSpaceOnUse"><stop offset="0" stop-color="#7059de"/><stop offset=".42" stop-color="#4b83e0"/><stop offset=".79" stop-color="#2fa1e2"/><stop offset="1" stop-color="#25ade3"/></linearGradient><linearGradient id="cgs0h" x1="220.87" x2="402.61" y1="608.2" y2="503.26" gradientUnits="userSpaceOnUse"><stop offset="0" stop-color="#7059de"/><stop offset=".42" stop-color="#4b83e0"/><stop offset=".79" stop-color="#2fa1e2"/><stop offset="1" stop-color="#25ade3"/></linearGradient><linearGradient id="cgs0j" x1="215.09" x2="396.68" y1="597.42" y2="492.57" gradientUnits="userSpaceOnUse"><stop offset="0" stop-color="#7059de"/><stop offset=".42" stop-color="#4b83e0"/><stop offset=".79" stop-color="#2fa1e2"/><stop offset="1" stop-color="#25ade3"/></linearGradient><linearGradient id="cgs0l" x1="176.18" x2="366.72" y1="530.53" y2="420.52" gradientUnits="userSpaceOnUse"><stop offset="0" stop-color="#7059de"/><stop offset=".42" stop-color="#4b83e0"/><stop offset=".79" stop-color="#2fa1e2"/><stop offset="1" stop-color="#25ade3"/></linearGradient><linearGradient id="cgs0n" x1="196.36" x2="382.12" y1="563.95" y2="456.7" gradientUnits="userSpaceOnUse"><stop offset="0" stop-color="#7059de"/><stop offset=".42" stop-color="#4b83e0"/><stop offset=".79" stop-color="#2fa1e2"/><stop offset="1" stop-color="#25ade3"/></linearGradient><linearGradient id="cgs0p" x1="193.1" x2="389.91" y1="575.59" y2="461.97" gradientUnits="userSpaceOnUse"><stop offset="0" stop-color="#7059de"/><stop offset=".42" stop-color="#4b83e0"/><stop offset=".79" stop-color="#2fa1e2"/><stop offset="1" stop-color="#25ade3"/></linearGradient><linearGradient id="cgs0r" x1="169.78" x2="359.96" y1="517.96" y2="408.16" gradientUnits="userSpaceOnUse"><stop offset="0" stop-color="#7059de"/><stop offset=".42" stop-color="#4b83e0"/><stop offset=".79" stop-color="#2fa1e2"/><stop offset="1" stop-color="#25ade3"/></linearGradient><linearGradient id="cgs0t" x1="192.97" x2="388.8" y1="575.53" y2="462.45" gradientUnits="userSpaceOnUse"><stop offset="0" stop-color="#7059de"/><stop offset=".42" stop-color="#4b83e0"/><stop offset=".79" stop-color="#2fa1e2"/><stop offset="1" stop-color="#25ade3"/></linearGradient><linearGradient id="cgs0v" x1="193.36" x2="379.74" y1="559.85" y2="452.24" gradientUnits="userSpaceOnUse"><stop offset="0" stop-color="#7059de"/><stop offset=".42" stop-color="#4b83e0"/><stop offset=".79" stop-color="#2fa1e2"/><stop offset="1" stop-color="#25ade3"/></linearGradient></defs><g><g transform="translate(-218 -459)"><use fill="url(#cgs0b)" xlink:href="#cgs0a"/></g><g transform="translate(-218 -459)"><use fill="url(#cgs0d)" xlink:href="#cgs0c"/></g><g transform="translate(-218 -459)"><use fill="url(#cgs0f)" xlink:href="#cgs0e"/></g><g transform="translate(-218 -459)"><use fill="url(#cgs0h)" xlink:href="#cgs0g"/></g><g transform="translate(-218 -459)"><use fill="url(#cgs0j)" xlink:href="#cgs0i"/></g><g transform="translate(-218 -459)"><use fill="url(#cgs0l)" xlink:href="#cgs0k"/></g><g transform="translate(-218 -459)"><use fill="url(#cgs0n)" xlink:href="#cgs0m"/></g><g transform="translate(-218 -459)"><use fill="url(#cgs0p)" xlink:href="#cgs0o"/></g><g transform="translate(-218 -459)"><use fill="url(#cgs0r)" xlink:href="#cgs0q"/></g><g transform="translate(-218 -459)"><use fill="url(#cgs0t)" xlink:href="#cgs0s"/></g><g transform="translate(-218 -459)"><use fill="url(#cgs0v)" xlink:href="#cgs0u"/></g><g transform="translate(-218 -459)"><use fill="#fff" xlink:href="#cgs0w"/></g><g transform="translate(-218 -459)"><use fill="#fff" xlink:href="#cgs0x"/></g><g transform="translate(-218 -459)"><use fill="#fff" xlink:href="#cgs0y"/></g><g transform="translate(-218 -459)"><use fill="#fff" xlink:href="#cgs0z"/></g><g transform="translate(-218 -459)"><use fill="#fff" xlink:href="#cgs0A"/></g><g transform="translate(-218 -459)"/></g></svg>