<svg xmlns="http://www.w3.org/2000/svg" xmlns:xlink="http://www.w3.org/1999/xlink" width="203" height="253" viewBox="0 0 203 253"><defs><path id="fwjea" d="M986.5 661.2H800c-4.4 0-8-3.6-8-8V417.1c0-4.4 3.6-8 8-8h186.5c4.4 0 8 3.6 8 8v236.1c.1 4.4-3.5 8-8 8z"/><path id="fwjeb" d="M893.3 574.2l50-86.7H843.2z"/><path id="fwjed" d="M870.1 476.7h-26.9v-33z"/><path id="fwjef" d="M916.9 476.7h26.9v-33z"/><linearGradient id="fwjec" x1="847.92" x2="945.41" y1="551.19" y2="453.7" gradientUnits="userSpaceOnUse"><stop offset="0" stop-color="#7059de"/><stop offset=".42" stop-color="#4b83e0"/><stop offset=".79" stop-color="#2fa1e2"/><stop offset="1" stop-color="#25ade3"/></linearGradient><linearGradient id="fwjee" x1="806.79" x2="904.28" y1="510.06" y2="412.57" gradientUnits="userSpaceOnUse"><stop offset="0" stop-color="#7059de"/><stop offset=".42" stop-color="#4b83e0"/><stop offset=".79" stop-color="#2fa1e2"/><stop offset="1" stop-color="#25ade3"/></linearGradient><linearGradient id="fwjeg" x1="850.36" x2="947.86" y1="553.63" y2="456.14" gradientUnits="userSpaceOnUse"><stop offset="0" stop-color="#7059de"/><stop offset=".42" stop-color="#4b83e0"/><stop offset=".79" stop-color="#2fa1e2"/><stop offset="1" stop-color="#25ade3"/></linearGradient></defs><g><g transform="translate(-792 -409)"><use fill="#fff" xlink:href="#fwjea"/></g><g transform="translate(-792 -409)"/><g transform="translate(-792 -409)"/><g transform="translate(-792 -409)"><use fill="url(#fwjec)" xlink:href="#fwjeb"/></g><g transform="translate(-792 -409)"><use fill="url(#fwjee)" xlink:href="#fwjed"/></g><g transform="translate(-792 -409)"><use fill="url(#fwjeg)" xlink:href="#fwjef"/></g></g></svg>