<svg xmlns="http://www.w3.org/2000/svg" xmlns:xlink="http://www.w3.org/1999/xlink" width="203" height="253" viewBox="0 0 203 253"><defs><path id="ohm4a" d="M1749.9 661.2h-186.5c-4.4 0-8-3.6-8-8V417.1c0-4.4 3.6-8 8-8h186.5c4.4 0 8 3.6 8 8v236.1c0 4.4-3.6 8-8 8z"/><path id="ohm4b" d="M1618.8 481.1h6.9l1-6.5h-6.9zm-9.1 17.4l1.7-11.5h-6.9l1-6.1h6.8l.9-6.3h-6.9l1-6.1h6.9l1.7-10.9h6.6l-1.7 10.9h6.7l1.7-10.9h6.6l-1.6 10.9h6.9l-1 6.1h-6.8l-1 6.3h7l-1 6.1h-6.9l-1.7 11.5h-6.6l1.7-11.5h-6.7l-1.7 11.5z"/><path id="ohm4d" d="M1667.7 487.1a5.87 5.87 0 0 0 4.2-1.6c.6-.5 1-1.2 1.3-2 .3-.8.5-1.7.5-2.7 0-1-.2-1.9-.5-2.6-.3-.8-.8-1.4-1.3-2a5.87 5.87 0 0 0-4.2-1.6c-1.6 0-3 .5-4.2 1.6-1.2 1.1-1.8 2.6-1.8 4.6 0 2 .6 3.5 1.8 4.6 1.2 1.1 2.6 1.7 4.2 1.7zm1-29.5c3.5 0 6.6.6 9.5 1.8 2.9 1.2 5.4 2.8 7.4 4.9 2.1 2.1 3.7 4.5 4.8 7.2 1.1 2.7 1.7 5.7 1.7 8.7 0 1.8-.2 3.4-.7 5-.4 1.5-1.1 2.9-1.9 4-.8 1.1-1.8 2-3 2.6-1.2.6-2.5.9-4 .9s-2.9-.4-4.2-1.1a7.2 7.2 0 0 1-2.9-3.1c-1.8 2.8-4.5 4.3-8.2 4.3a11.52 11.52 0 0 1-10.7-7.2c-.6-1.5-.9-3.1-.9-4.9 0-1.8.3-3.4.9-4.9.6-1.5 1.4-2.8 2.5-3.8 1-1.1 2.2-1.9 3.6-2.5 1.4-.6 2.8-.9 4.3-.9s2.8.3 3.9.9c1.1.6 1.9 1.3 2.6 2.2h.5v-2.2h5.9V484c0 1 .3 1.9.8 2.6.5.7 1.2 1 2.2 1 .6 0 1.2-.2 1.7-.6.5-.4.9-.9 1.2-1.6.3-.7.5-1.5.7-2.4.1-.9.2-1.9.2-2.9 0-2.2-.4-4.4-1.3-6.5-.9-2.1-2.1-3.9-3.7-5.5s-3.5-2.8-5.7-3.8c-2.2-.9-4.6-1.4-7.2-1.4-2.5 0-4.8.4-6.9 1.3-2.2.8-4 2-5.6 3.6-1.6 1.5-2.9 3.4-3.8 5.5-.9 2.2-1.4 4.5-1.4 7.1 0 2.6.5 5 1.5 7.1 1 2.2 2.3 4 3.9 5.5s3.5 2.7 5.6 3.6c2.1.8 4.4 1.3 6.7 1.3 1.5 0 2.9-.2 4.3-.5a12 12 0 0 0 3.7-1.5l2 5.2c-1.4.7-3 1.2-4.7 1.6-1.7.4-3.5.6-5.3.6-3.5 0-6.7-.6-9.6-1.8-2.9-1.2-5.4-2.8-7.5-4.9a22.4 22.4 0 0 1-6.6-16.2c0-3.1.6-6.1 1.7-8.9 1.2-2.8 2.8-5.2 4.9-7.3 2.1-2.1 4.6-3.7 7.5-4.9 2.9-1.1 6.1-1.7 9.6-1.7z"/><path id="ohm4f" d="M1698.8 468v-12.3h8.1V468l-.8 15.8h-6.4zm4.1 30.5a5.14 5.14 0 0 1-5.2-5.2c0-1.4.5-2.7 1.5-3.6 1-1 2.2-1.5 3.7-1.5s2.7.5 3.6 1.5c1 1 1.5 2.2 1.5 3.6a5.14 5.14 0 0 1-5.1 5.2z"/><path id="ohm4h" d="M1634.6 557.8c.8-.8 1.7-1.2 2.9-1.2a4 4 0 0 1 2.9 1.2c.8.8 1.2 1.9 1.2 3.2 0 1.3-.4 2.4-1.2 3.2-.8.8-1.7 1.2-2.9 1.2a4 4 0 0 1-2.9-1.2c-.8-.8-1.2-1.9-1.2-3.2 0-1.3.4-2.3 1.2-3.2zm-6.8 7.2c.5 1.3 1.3 2.4 2.2 3.3.9.9 2 1.7 3.3 2.2 1.3.5 2.7.8 4.2.8s2.9-.3 4.2-.8c1.2-.6 2.4-1.3 3.3-2.2.9-1 1.7-2 2.2-3.3.5-1.3.8-2.6.8-4a10.46 10.46 0 0 0-3-7.2c-.9-.9-2-1.7-3.3-2.2-1.3-.5-2.7-.8-4.2-.8s-2.9.3-4.2.8c-1.3.5-2.4 1.3-3.3 2.2-.9 1-1.7 2.1-2.2 3.3a10.07 10.07 0 0 0 0 7.9zm-13.8 6.3l26.6-39.6-4.7-3.2-26.6 39.6zm-4.7-35.8c.8-.8 1.7-1.2 2.9-1.2a4 4 0 0 1 2.9 1.2c.8.8 1.2 1.9 1.2 3.2 0 1.3-.4 2.4-1.2 3.2-.8.8-1.7 1.2-2.9 1.2a4 4 0 0 1-2.9-1.2c-.8-.8-1.2-1.9-1.2-3.2 0-1.4.4-2.4 1.2-3.2zm-6.8 7.2c.5 1.3 1.3 2.4 2.2 3.3.9.9 2 1.7 3.3 2.2 1.3.5 2.7.8 4.2.8s2.9-.3 4.2-.8c1.2-.6 2.4-1.3 3.3-2.2.9-1 1.7-2 2.2-3.3.5-1.3.8-2.6.8-4a10.46 10.46 0 0 0-3-7.2c-.9-.9-2-1.7-3.3-2.2-1.3-.5-2.7-.8-4.2-.8s-2.9.3-4.2.8c-1.3.5-2.4 1.3-3.3 2.2-.9 1-1.7 2.1-2.2 3.3-.5 1.2-.8 2.5-.8 3.9s.2 2.7.8 4z"/><path id="ohm4j" d="M1672 545.8l-6.3-10.9h-.5l-6.4 10.9h-8.1l11.4-18.3h6.5l11.4 18.3z"/><path id="ohm4l" d="M1703.2 561.9c-.6.8-1.5 1.3-2.6 1.7v-9.1c1.3.6 2.2 1.3 2.8 2 .5.7.8 1.6.8 2.6 0 1.1-.3 2-1 2.8zm-11.9-22.1c0-1 .4-1.9 1-2.5.7-.8 1.7-1.3 2.9-1.6v8.7c-1.4-.7-2.4-1.4-3-2.1-.6-.7-.9-1.5-.9-2.5zm4 31.3v5.5h5.3v-5.3c1.5-.3 2.9-.7 4.3-1.3 1.4-.6 2.6-1.4 3.6-2.4 1.1-1 1.9-2.2 2.5-3.6.6-1.4.9-3 .9-4.8 0-1.6-.3-3-.8-4.2-.5-1.3-1.3-2.3-2.3-3.3-1-1-2.2-1.8-3.6-2.6-1.4-.7-3-1.5-4.7-2.2v-10.7c1.1.4 1.9 1 2.5 1.7.6.7 1 1.5 1.3 2.3l6.7-3c-.3-.9-.7-1.7-1.2-2.6-.6-.9-1.2-1.7-2.1-2.5a12.94 12.94 0 0 0-7.2-3.4v-5.3h-5.3v5.1c-1.7.2-3.3.6-4.7 1.3-1.4.7-2.6 1.5-3.6 2.5-.9 1-1.7 2.1-2.2 3.4-.5 1.3-.8 2.7-.8 4.1 0 1.5.3 2.9.9 4.2.5 1.3 1.3 2.4 2.3 3.4 1 1 2.1 1.8 3.4 2.6 1.3.8 2.7 1.4 4.2 2l.5.2v11.4c-1.5-.5-2.8-1.3-3.9-2.6s-1.8-2.7-2.2-4.3l-6.9 2.8c1 3.5 2.7 6.2 5 8.1 2.3 1.9 5 3.1 8 3.5z"/><linearGradient id="ohm4c" x1="1558.5" x2="1687.5" y1="533.8" y2="421.8" gradientUnits="userSpaceOnUse"><stop offset="0" stop-color="#7059de"/><stop offset=".42" stop-color="#4b83e0"/><stop offset=".79" stop-color="#2fa1e2"/><stop offset="1" stop-color="#25ade3"/></linearGradient><linearGradient id="ohm4e" x1="1579.08" x2="1708.08" y1="557.49" y2="445.49" gradientUnits="userSpaceOnUse"><stop offset="0" stop-color="#7059de"/><stop offset=".42" stop-color="#4b83e0"/><stop offset=".79" stop-color="#2fa1e2"/><stop offset="1" stop-color="#25ade3"/></linearGradient><linearGradient id="ohm4g" x1="1592.05" x2="1721.05" y1="572.43" y2="460.43" gradientUnits="userSpaceOnUse"><stop offset="0" stop-color="#7059de"/><stop offset=".42" stop-color="#4b83e0"/><stop offset=".79" stop-color="#2fa1e2"/><stop offset="1" stop-color="#25ade3"/></linearGradient><linearGradient id="ohm4i" x1="1594.98" x2="1723.98" y1="575.82" y2="463.81" gradientUnits="userSpaceOnUse"><stop offset="0" stop-color="#7059de"/><stop offset=".42" stop-color="#4b83e0"/><stop offset=".79" stop-color="#2fa1e2"/><stop offset="1" stop-color="#25ade3"/></linearGradient><linearGradient id="ohm4k" x1="1608.32" x2="1737.32" y1="591.17" y2="479.17" gradientUnits="userSpaceOnUse"><stop offset="0" stop-color="#7059de"/><stop offset=".42" stop-color="#4b83e0"/><stop offset=".79" stop-color="#2fa1e2"/><stop offset="1" stop-color="#25ade3"/></linearGradient><linearGradient id="ohm4m" x1="1626.36" x2="1755.36" y1="611.96" y2="499.95" gradientUnits="userSpaceOnUse"><stop offset="0" stop-color="#7059de"/><stop offset=".42" stop-color="#4b83e0"/><stop offset=".79" stop-color="#2fa1e2"/><stop offset="1" stop-color="#25ade3"/></linearGradient></defs><g><g transform="translate(-1555 -409)"><use fill="#fff" xlink:href="#ohm4a"/></g><g transform="translate(-1555 -409)"/><g transform="translate(-1555 -409)"/><g transform="translate(-1555 -409)"><use fill="url(#ohm4c)" xlink:href="#ohm4b"/></g><g transform="translate(-1555 -409)"><use fill="url(#ohm4e)" xlink:href="#ohm4d"/></g><g transform="translate(-1555 -409)"><use fill="url(#ohm4g)" xlink:href="#ohm4f"/></g><g transform="translate(-1555 -409)"><use fill="url(#ohm4i)" xlink:href="#ohm4h"/></g><g transform="translate(-1555 -409)"><use fill="url(#ohm4k)" xlink:href="#ohm4j"/></g><g transform="translate(-1555 -409)"><use fill="url(#ohm4m)" xlink:href="#ohm4l"/></g></g></svg>