<svg xmlns="http://www.w3.org/2000/svg" xmlns:xlink="http://www.w3.org/1999/xlink" width="204" height="253" viewBox="0 0 204 253"><defs><path id="wbpqa" d="M1498.4 661.2h-186.5c-4.4 0-8-3.6-8-8V417.1c0-4.4 3.6-8 8-8h186.5c4.4 0 8 3.6 8 8v236.1c0 4.4-3.6 8-8 8z"/><path id="wbpqb" d="M1445 456.2c.1.3.4.3.7.3 7.6 1.6 13 7.4 14.1 15.1.1.7.1 1.3.1 2v49.7c0 1 0 1-1 1h-66c-1 0-1 0-1-1.1v-65.8-1.2h53.1z"/><path id="wbpqd" d="M1376.1 456.2v25c0 1.1 0 1.1-1.1 1.1h-24.1c-1 0-1 0-1-1v-7.6c0-8.2 5.8-15.4 13.9-17.1.3-.1.8 0 1-.4h11.3z"/><path id="wbpqf" d="M1363.1 498.1h12c1 0 1 0 1 1v24.2c0 1 0 1-1 1h-24.2c-1 0-1 0-1-1V499c0-.9 0-.9.9-.9h12.3z"/><path id="wbpqh" d="M1418 553.2v12c0 .9 0 1-1 1h-24.3c-.9 0-1 0-1-1V541c0-.9 0-1 1-1h24.3c.9 0 1 0 1 1v12.2z"/><path id="wbpqj" d="M1433.7 553.1v-12c0-1 0-1 1-1h24.1c1.1 0 1.1 0 1.1 1.1v7.9c-.1 8.4-6.5 15.8-14.8 17-1.8.3-3.7.2-5.6.2h-4.9c-.9 0-1 0-1-.9.1-4.2.1-8.3.1-12.3z"/><path id="wbpql" d="M1376.1 553.2v12.1c0 .9 0 .9-.9.9h-8.2c-9.4-.1-17.1-8-17.1-17.4v-7.9c0-.6.2-.8.8-.8h24.6c.6 0 .8.2.8.9v12.2z"/><linearGradient id="wbpqc" x1="1345.51" x2="1460.51" y1="563.5" y2="458.5" gradientUnits="userSpaceOnUse"><stop offset="0" stop-color="#7059de"/><stop offset=".42" stop-color="#4b83e0"/><stop offset=".79" stop-color="#2fa1e2"/><stop offset="1" stop-color="#25ade3"/></linearGradient><linearGradient id="wbpqe" x1="1308.96" x2="1423.96" y1="523.47" y2="418.47" gradientUnits="userSpaceOnUse"><stop offset="0" stop-color="#7059de"/><stop offset=".42" stop-color="#4b83e0"/><stop offset=".79" stop-color="#2fa1e2"/><stop offset="1" stop-color="#25ade3"/></linearGradient><linearGradient id="wbpqg" x1="1327.45" x2="1442.45" y1="543.72" y2="438.71" gradientUnits="userSpaceOnUse"><stop offset="0" stop-color="#7059de"/><stop offset=".42" stop-color="#4b83e0"/><stop offset=".79" stop-color="#2fa1e2"/><stop offset="1" stop-color="#25ade3"/></linearGradient><linearGradient id="wbpqi" x1="1367.36" x2="1482.36" y1="587.43" y2="482.43" gradientUnits="userSpaceOnUse"><stop offset="0" stop-color="#7059de"/><stop offset=".42" stop-color="#4b83e0"/><stop offset=".79" stop-color="#2fa1e2"/><stop offset="1" stop-color="#25ade3"/></linearGradient><linearGradient id="wbpqk" x1="1384.04" x2="1499.04" y1="605.71" y2="500.7" gradientUnits="userSpaceOnUse"><stop offset="0" stop-color="#7059de"/><stop offset=".42" stop-color="#4b83e0"/><stop offset=".79" stop-color="#2fa1e2"/><stop offset="1" stop-color="#25ade3"/></linearGradient><linearGradient id="wbpqm" x1="1348.34" x2="1463.34" y1="566.59" y2="461.59" gradientUnits="userSpaceOnUse"><stop offset="0" stop-color="#7059de"/><stop offset=".42" stop-color="#4b83e0"/><stop offset=".79" stop-color="#2fa1e2"/><stop offset="1" stop-color="#25ade3"/></linearGradient></defs><g><g transform="translate(-1303 -409)"><use fill="#fff" xlink:href="#wbpqa"/></g><g transform="translate(-1303 -409)"/><g transform="translate(-1303 -409)"/><g transform="translate(-1303 -409)"><use fill="url(#wbpqc)" xlink:href="#wbpqb"/></g><g transform="translate(-1303 -409)"><use fill="url(#wbpqe)" xlink:href="#wbpqd"/></g><g transform="translate(-1303 -409)"><use fill="url(#wbpqg)" xlink:href="#wbpqf"/></g><g transform="translate(-1303 -409)"><use fill="url(#wbpqi)" xlink:href="#wbpqh"/></g><g transform="translate(-1303 -409)"><use fill="url(#wbpqk)" xlink:href="#wbpqj"/></g><g transform="translate(-1303 -409)"><use fill="url(#wbpqm)" xlink:href="#wbpql"/></g></g></svg>