<svg xmlns="http://www.w3.org/2000/svg" xmlns:xlink="http://www.w3.org/1999/xlink" width="27" height="15" viewBox="0 0 27 15"><defs><path id="kccma" d="M1498.9 121.9h-8.5a2 2 0 0 1-2-2c0-1.1.9-2 2-2h8.5a2 2 0 0 1 2 2c.1 1.1-.8 2-2 2z"/><path id="kccmb" d="M1498.9 116.8h-8.5a2 2 0 0 1-2-2c0-1.1.9-2 2-2h8.5a2 2 0 0 1 2 2c.1 1.1-.8 2-2 2z"/><path id="kccmc" d="M1512.4 116.8h-8.5a2 2 0 0 1-2-2c0-1.1.9-2 2-2h8.5a2 2 0 0 1 2 2 2 2 0 0 1-2 2z"/><path id="kccmd" d="M1512.4 111.7h-8.5a2 2 0 0 1-2-2c0-1.1.9-2 2-2h8.5a2 2 0 0 1 2 2 2 2 0 0 1-2 2z"/><path id="kccme" d="M1493.4 111.7v-4h2.4v4z"/><path id="kccmf" d="M1506.9 121.8v-4h2.4v4z"/></defs><g><g transform="translate(-1488 -107)"><use fill="#34343a" xlink:href="#kccma"/></g><g transform="translate(-1488 -107)"><use fill="#34343a" xlink:href="#kccmb"/></g><g transform="translate(-1488 -107)"><use fill="#34343a" xlink:href="#kccmc"/></g><g transform="translate(-1488 -107)"><use fill="#34343a" xlink:href="#kccmd"/></g><g transform="translate(-1488 -107)"><use fill="#34343a" xlink:href="#kccme"/></g><g transform="translate(-1488 -107)"><use fill="#34343a" xlink:href="#kccmf"/></g></g></svg>