<svg xmlns="http://www.w3.org/2000/svg" xmlns:xlink="http://www.w3.org/1999/xlink" width="159" height="58" viewBox="0 0 159 58"><defs><path id="9v47a" d="M221 100.6c-.1-.2-.3-.3-.4-.5-.1-.1-.2-.3-.3-.4-.1-.1-.2-.2-.3-.4l-.1-.1c-.1-.1-.2-.2-.2-.3 0 0 0-.1-.1-.1-.1-.1-.2-.2-.2-.3-2.1-3-2.6-5.7-2.6-8.1v-.3-.4-.2c.2-1.6.6-3.2 1-4.6l.3-1.3c.3-1.2.5-2.4.5-3.5-.1-2.5-1.4-3.9-3-4.5a5.03 5.03 0 0 0-4.3 0c-1.3.5-2.4 1.6-2.9 2.9 0 .1-.1.2-.1.3-1 2.9-4.1 13.5-6.3 20.8.5.8 1.1 1.6 1.6 2.3.4-1.5.9-3.1 1.4-4.9.3-1.2.7-2.4 1.1-3.6l2.3-7.8c.1-.5.3-.9.4-1.3.1-.2.1-.5.2-.7.6-2.1 1.1-3.6 1.4-4.3.5-1.4 2.2-2 3.5-1.8.7.1 2.3.6 2.4 2.7 0 1-.2 2.1-.5 3.4-.1.2-.1.5-.2.7-.5 1.8-1 3.8-1.1 6.1 0 1.4.1 2.9.6 4.5v.1c0 .2.1.3.2.5v.1c.1.2.1.3.2.5v.1c.1.2.1.3.2.5 0 0 0 .1.1.1.1.2.1.3.2.5v.1l.6 1.2c.7 1.2 1.5 2.4 2.6 3.6 0 .1.1.1.1.1l.2.2a17.59 17.59 0 0 0 4.1 3.2c.5-.5 1-1.1 1.5-1.7-1-.7-2.7-1.8-4.1-3.4z"/><path id="9v47c" d="M224.9 98.4c-.6-.5-1.3-1.2-2-2.1-.2-.2-.3-.4-.4-.6-.1-.1-.1-.2-.2-.3-.1-.1-.1-.2-.2-.3-.1-.1-.1-.2-.2-.3 0-.1-.1-.2-.1-.3-.2-.5-.4-1.1-.5-1.7 0-.1 0-.2-.1-.3v-.1-.3-.1-.4-.3-.1-.3-.7c.1-2.3.7-4.7 1.3-6.7 0-.1 0-.1.1-.2.2-.9.5-1.8.6-2.5 0-.1 0-.2.1-.4v-.3-.1-.3-.1-.3-.1-.3c0-.5-.1-.9-.2-1.4 0-.1 0-.2-.1-.3v-.1c0-.1-.1-.2-.1-.3v-.1c0-.1-.1-.2-.1-.3v-.1c0-.1-.1-.2-.1-.3v-.1c0-.1-.1-.2-.1-.3a10.4 10.4 0 0 0-6.4-5.2c-2.5-.8-5.2-.6-7.4.6-1.8 1-3 2.5-3.4 4.3l-.3.9v.1c0 .1 0 .2-.1.2 0 .1 0 .1-.1.2v.1c-.4 1.3-.8 2.7-1.4 4.3 0 .1-.1.3-.1.4-.1.2-.1.4-.2.7v.1c0 .1-.1.2-.1.3-.5 1.6-1.1 3.3-1.5 4.8-.2.7-.4 1.3-.5 1.9-.3 1-.5 1.9-.8 2.8-.2.7-.5 1.4-.7 2.1.4.9.9 1.7 1.4 2.5.7-1.6 1.4-3.6 2-6v-.1c.1-.2.1-.4.2-.6v-.2c.6-2.3 1.5-5 2.4-7.7.3-1 .7-2.1 1-3V79c0-.1 0-.1.1-.2.4-1.2.7-2.2.9-3.1.3-1.2 1.1-2.2 2.4-2.9 1.6-.9 3.7-1.1 5.7-.5 1.7.5 3 1.4 4 2.4 1.1 1.1 1.6 2.5 1.7 4v.7c0 .1 0 .2-.1.3-.1.7-.4 1.6-.6 2.5 0 .1-.1.2-.1.4-.5 2-1.2 4.4-1.2 6.9-.1 2.6.4 5.3 2.3 7.5l.6.6c2 2.2 3.6 3.3 4.8 3.9.4-.6.9-1.2 1.3-1.8-1.1.5-2.2 0-3.5-1.3z"/><path id="9v47e" d="M207.1 105.8l.2-.5 1.6-5.5.4-1.4 2.3-8.1v-.1l2-6.9.9-3.1c.2-.6-.2-1.2-.8-1.4-.6-.2-1.2.2-1.4.8l-1.1 3.7-2 6.9-.9 3.1-.5 1.6-1.4 5-1.1 3.9c.6.7 1.2 1.4 1.8 2z"/><path id="9v47g" d="M219.2 110c-.6-.2-2.4-1.8-3.9-3.5-.3-.3-.6-.4-1-.4-.4.1-.7.3-.8.7l-1.4 3.6c.7.6 1.3 1 1.8 1.4l1-2.5c.7.7 1.7 1.6 2.5 2.2.5-.4 1.1-.9 1.8-1.5z"/><path id="9v47i" d="M220.4 105.3c-.6-.4-1.1-.9-1.6-1.3l-.2-.2c-.1-.1-.2-.1-.2-.2l-.2-.2-.1-.1a18.78 18.78 0 0 1-4.1-6.1c-.1-.5-.6-.8-1.1-.8-.4 0-.8.2-1 .6 0 .1 0 .1-.1.2l-.4 1.3-2.2 6.9v.1l-.2.6-.4 1.4c.6.6 1.2 1.2 1.8 1.7l.9-2.9.3-.9 1.5-4.8c.8 1.4 2 3.1 3.8 4.8.1.1.2.2.4.3.1 0 .1.1.2.1 1 .9 2.2 1.8 3.6 2.6.5-.5 1.1-1 1.6-1.6-.8-.5-1.6-1-2.3-1.5z"/><path id="9v47k" d="M196.4 82.4l.1-.4.3-.9c0-.1.1-.2.1-.3 0-.1 0-.1.1-.2.7-2.3 1.4-4.5 2.1-6.4v-.1c.3-.7.5-1.4.7-2 .6-1.5 1.9-2.9 3.6-3.9-1-.1-2.1-.2-3.1-.4-1.1 1-2 2.2-2.5 3.5-.3.8-.7 1.8-1 2.9 0 .1-.1.3-.1.4 0 .1 0 .1-.1.2-.6 1.8-1.2 3.8-1.9 5.8.3 1.5.6 3 1 4.4.1-.9.4-1.8.7-2.6z"/><path id="9v47m" d="M230 97.1c-1.6-.7-3.7-2.1-4.7-5-.2-.6-.3-1.2-.3-1.8v-.5-.5c0-.1 0-.3.1-.4v-.2c0-.1 0-.2.1-.3v-.3c0-.1 0-.2.1-.3 0-.1 0-.2.1-.3 0-.1 0-.2.1-.3 0-.1.1-.3.1-.4 0-.1 0-.2.1-.2 0-.1.1-.3.1-.4 0-.1 0-.2.1-.3 0-.2.1-.4.1-.6.1-.2.1-.5.2-.7.1-.5.2-1 .4-1.6 0-.2.1-.3.1-.5v-.1c0-.1 0-.3.1-.4v-.2c0-.1 0-.2.1-.3v-.2-.3-.3-.3-.3-.2-.3-.2-.3-.2-.3-.2-.4-.2-.4-.2c0-.1 0-.3-.1-.4v-.1c0-.1-.1-.3-.1-.4v-.1c0-.1 0-.2-.1-.3 0-.1-.1-.2-.1-.4-1-3.1-3-5.4-5.3-6.9-.2-.2-.5-.3-.7-.4-2.9-.2-4.8-.5-5.1-.6-.3.1-4.2.7-9.1.7-.2.1-.4.2-.5.3-2 1.3-3.6 3-4.4 5-.3.8-.7 1.8-1 2.9 0 .1-.1.3-.1.4 0 .1 0 .1-.1.2-1.2 3.4-2.5 7.7-3.5 11.2.4 1.2.8 2.3 1.3 3.4.6-1.9 1.3-4.4 2-6.9l.1-.4.3-.9c0-.1.1-.2.1-.3 0-.1 0-.1.1-.2.7-2.3 1.4-4.5 2.1-6.4v-.1c.3-.7.5-1.4.7-2 1.1-2.8 4.6-5 7.9-5.8 1.1-.3 2.2-.4 3.1-.2.4.1.9.1 1.3.2 3.1.7 6.7 2.9 8.3 6.9.1.3.3.7.4 1 .7 2.2.3 4.6-.3 7l-.3 1.2c-.5 2-.9 3.8-.9 5.6 0 .8.1 1.7.4 2.5v.1c0 .1.1.2.1.3 0 .1.1.1.1.2v.1c1 2.5 2.7 4 4.2 5 .3.2.6.3.9.5.1 0 .2.1.3.1.4-.8.8-1.4 1.1-2.1z"/><path id="9v47o" d="M229.9 89.9c-.2-.6-.3-1.2-.3-1.8v-.5-.5c0-.1 0-.3.1-.4v-.2c0-.1 0-.2.1-.3v-.3c0-.1 0-.2.1-.3 0-.1 0-.2.1-.3 0-.1 0-.2.1-.3 0-.1.1-.3.1-.4 0-.1 0-.2.1-.2 0-.1.1-.3.1-.4 0-.1 0-.2.1-.3 0-.2.1-.4.1-.6.1-.2.1-.5.2-.7.1-.5.2-1 .4-1.6 0-.2.1-.3.1-.5v-.1c0-.1 0-.3.1-.4v-.2c0-.1 0-.2.1-.3v-.2-.3-.3-.3-.3-.2-.3-.2-.3-.2-.3-.2-.4-.2-.4-.2c0-.1 0-.3-.1-.4v-.1c0-.1-.1-.3-.1-.4V74c0-.1 0-.2-.1-.3 0-.1-.1-.2-.1-.4-.7-2.1-1.8-3.8-3.2-5.2-1.1.1-2.2.1-3.3.2 1.7 1.1 3.2 2.8 4.1 5 .1.3.3.7.4 1 .7 2.2.3 4.6-.3 7l-.3 1.2c-.5 2-.9 3.8-.9 5.6 0 .8.1 1.7.4 2.5v.1c0 .1.1.2.1.3 0 .1.1.1.1.2v.1c.7 1.8 1.8 3.2 3 4.1.4-.7.7-1.3 1-2.1-1-.8-1.8-1.9-2.3-3.4z"/><path id="9v47q" d="M198.2 67.3l-2.3-.6c-.8 1.2-1.5 2.4-2.2 3.7 0 1.9.1 3.7.2 5.4l.3-1v-.1c.1-.3.2-.5.3-.8 0-.1.1-.2.1-.3.1-.2.2-.5.3-.7v-.1c.5-1.3 1.2-2.5 1.9-3.7.6-.6 1-1.2 1.4-1.8z"/><path id="9v47s" d="M236.3 77c.1-2.8-1-5.7-3-8.2-.2-.3-.5-.6-.7-.8-.1-.1-.2-.3-.4-.4l-.2-.2c-.9.2-1.9.4-2.8.5l.1.1c.4.4.9.8 1.3 1.2 1.2 1.2 2.1 2.5 2.7 3.8.4 1 .7 2 .8 3v1.1c0 .3 0 .6-.1.9v.2c0 .3-.1.6-.1.8 0 .3-.1.6-.1.8v.2c0 .3-.1.5-.1.8 0 .3-.1.5-.2.8v.1c-.2.8-.4 1.6-.5 2.4-.7 3-1.3 5.7-.2 7.7.8-1.8 1.5-3.7 2.1-5.7l.3-1.5c.4-2.2 1-4.7 1.1-7.6z"/><path id="9v47u" d="M238.1 61.8c-.3 0-.6.1-.8.2-3.6 1.5-8 2.2-13.2 2.2-4.4 0-7.9-.6-8.5-.7-.2 0-.3-.1-.5-.1s-.3 0-.5.1c-.7.1-4.1.7-8.5.7-5.2 0-9.7-.8-13.2-2.2-.3-.1-.5-.2-.8-.2a2.06 2.06 0 0 0-2.1 2c-2.7 34.9 21.2 50.8 23.9 52.5.1.1.2.1.2.2.3.2.7.3 1.1.3.4 0 .7-.1 1.1-.3.1 0 .2-.1.2-.2 2.7-1.7 26.6-17.6 23.9-52.5-.1-.7-.4-1.3-1-1.7-.5-.2-.9-.3-1.3-.3zm0 2.2c2.7 35-22.2 50.1-23.1 50.6-.8-.5-25.7-15.7-23.1-50.6 4.5 1.9 9.7 2.4 14.1 2.4 4.9 0 8.7-.7 9-.7.3.1 4.1.7 9 .7 4.4 0 9.6-.5 14.1-2.4"/><path id="9v47w" d="M257.9 65.5l5.4 28.4 5.3-28.4h4.6l-6.9 38.3h-5.9l-7-38.3z"/><path id="9v47x" d="M285.1 89.8l-2.4-11.5c-.8 3.8-1.4 7.3-2.3 11.5zm3.1 14l-2.2-9.5h-6.3l-2.1 9.5H273l7.7-38.3h4.2l8 38.3z"/><path id="9v47y" d="M308.1 96V65.5h4.5V96c0 4.4-3.9 8-8.6 8-4.6 0-8.5-3.6-8.5-8V65.5h4.5V96c0 1.9 1.8 3.5 4 3.5s4.1-1.5 4.1-3.5z"/><path id="9v47z" d="M330.8 103.8h-12.5V65.5h4.5v33.8h8z"/><path id="9v47A" d="M341.3 103.8h-4.5V70h-6.1v-4.5h16.6V70h-6z"/><linearGradient id="9v47b" x1="182.98" x2="261.08" y1="110.48" y2="65.39" gradientUnits="userSpaceOnUse"><stop offset="0" stop-color="#7059de"/><stop offset=".42" stop-color="#4b83e0"/><stop offset=".79" stop-color="#2fa1e2"/><stop offset="1" stop-color="#25ade3"/></linearGradient><linearGradient id="9v47d" x1="181.74" x2="259.16" y1="107.63" y2="62.93" gradientUnits="userSpaceOnUse"><stop offset="0" stop-color="#7059de"/><stop offset=".42" stop-color="#4b83e0"/><stop offset=".79" stop-color="#2fa1e2"/><stop offset="1" stop-color="#25ade3"/></linearGradient><linearGradient id="9v47f" x1="181.41" x2="260.7" y1="108.91" y2="63.13" gradientUnits="userSpaceOnUse"><stop offset="0" stop-color="#7059de"/><stop offset=".42" stop-color="#4b83e0"/><stop offset=".79" stop-color="#2fa1e2"/><stop offset="1" stop-color="#25ade3"/></linearGradient><linearGradient id="9v47h" x1="190.73" x2="266" y1="123.3" y2="79.85" gradientUnits="userSpaceOnUse"><stop offset="0" stop-color="#7059de"/><stop offset=".42" stop-color="#4b83e0"/><stop offset=".79" stop-color="#2fa1e2"/><stop offset="1" stop-color="#25ade3"/></linearGradient><linearGradient id="9v47j" x1="188.34" x2="263.55" y1="118.84" y2="75.42" gradientUnits="userSpaceOnUse"><stop offset="0" stop-color="#7059de"/><stop offset=".42" stop-color="#4b83e0"/><stop offset=".79" stop-color="#2fa1e2"/><stop offset="1" stop-color="#25ade3"/></linearGradient><linearGradient id="9v47l" x1="172.23" x2="251.14" y1="91.14" y2="45.58" gradientUnits="userSpaceOnUse"><stop offset="0" stop-color="#7059de"/><stop offset=".42" stop-color="#4b83e0"/><stop offset=".79" stop-color="#2fa1e2"/><stop offset="1" stop-color="#25ade3"/></linearGradient><linearGradient id="9v47n" x1="180.59" x2="257.52" y1="104.98" y2="60.56" gradientUnits="userSpaceOnUse"><stop offset="0" stop-color="#7059de"/><stop offset=".42" stop-color="#4b83e0"/><stop offset=".79" stop-color="#2fa1e2"/><stop offset="1" stop-color="#25ade3"/></linearGradient><linearGradient id="9v47p" x1="179.23" x2="260.74" y1="109.8" y2="62.74" gradientUnits="userSpaceOnUse"><stop offset="0" stop-color="#7059de"/><stop offset=".42" stop-color="#4b83e0"/><stop offset=".79" stop-color="#2fa1e2"/><stop offset="1" stop-color="#25ade3"/></linearGradient><linearGradient id="9v47r" x1="169.58" x2="248.34" y1="85.93" y2="40.46" gradientUnits="userSpaceOnUse"><stop offset="0" stop-color="#7059de"/><stop offset=".42" stop-color="#4b83e0"/><stop offset=".79" stop-color="#2fa1e2"/><stop offset="1" stop-color="#25ade3"/></linearGradient><linearGradient id="9v47t" x1="179.14" x2="260.31" y1="109.77" y2="62.94" gradientUnits="userSpaceOnUse"><stop offset="0" stop-color="#7059de"/><stop offset=".42" stop-color="#4b83e0"/><stop offset=".79" stop-color="#2fa1e2"/><stop offset="1" stop-color="#25ade3"/></linearGradient><linearGradient id="9v47v" x1="179.34" x2="256.53" y1="103.28" y2="58.71" gradientUnits="userSpaceOnUse"><stop offset="0" stop-color="#7059de"/><stop offset=".42" stop-color="#4b83e0"/><stop offset=".79" stop-color="#2fa1e2"/><stop offset="1" stop-color="#25ade3"/></linearGradient></defs><g><g transform="translate(-189 -61)"><use fill="url(#9v47b)" xlink:href="#9v47a"/></g><g transform="translate(-189 -61)"><use fill="url(#9v47d)" xlink:href="#9v47c"/></g><g transform="translate(-189 -61)"><use fill="url(#9v47f)" xlink:href="#9v47e"/></g><g transform="translate(-189 -61)"><use fill="url(#9v47h)" xlink:href="#9v47g"/></g><g transform="translate(-189 -61)"><use fill="url(#9v47j)" xlink:href="#9v47i"/></g><g transform="translate(-189 -61)"><use fill="url(#9v47l)" xlink:href="#9v47k"/></g><g transform="translate(-189 -61)"><use fill="url(#9v47n)" xlink:href="#9v47m"/></g><g transform="translate(-189 -61)"><use fill="url(#9v47p)" xlink:href="#9v47o"/></g><g transform="translate(-189 -61)"><use fill="url(#9v47r)" xlink:href="#9v47q"/></g><g transform="translate(-189 -61)"><use fill="url(#9v47t)" xlink:href="#9v47s"/></g><g transform="translate(-189 -61)"><use fill="url(#9v47v)" xlink:href="#9v47u"/></g><g transform="translate(-189 -61)"><use fill="#fff" xlink:href="#9v47w"/></g><g transform="translate(-189 -61)"><use fill="#fff" xlink:href="#9v47x"/></g><g transform="translate(-189 -61)"><use fill="#fff" xlink:href="#9v47y"/></g><g transform="translate(-189 -61)"><use fill="#fff" xlink:href="#9v47z"/></g><g transform="translate(-189 -61)"><use fill="#fff" xlink:href="#9v47A"/></g><g transform="translate(-189 -61)"/></g></svg>