<svg xmlns="http://www.w3.org/2000/svg" xmlns:xlink="http://www.w3.org/1999/xlink" width="177" height="68" viewBox="0 0 177 68"><defs><path id="pol5a" d="M446.17 97.93H279.1a4.3 4.3 0 0 1-4.3-4.3V34.87a4.3 4.3 0 0 1 4.3-4.3h167.08a4.3 4.3 0 0 1 4.3 4.3v58.76a4.3 4.3 0 0 1-4.3 4.3z"/><path id="pol5b" d="M348.34 73l-6.02-16.47h4.2l3.97 12.12 3.95-12.12h4.05L352.41 73z"/><path id="pol5c" d="M362.34 69.97l-1.13 3.04h-4.05l6.68-16.48h4.05L374.4 73h-4.2l-1.1-3.04zm3.4-9.27l-2.25 6.1h4.47z"/><path id="pol5d" d="M389.34 66.09c0 4.35-2.72 7.1-7.06 7.1-4.35 0-7.14-2.75-7.14-7.1v-9.56h3.94v9.56c0 2.23 1.35 3.6 3.23 3.6 1.85 0 3.11-1.37 3.11-3.6v-9.56h3.92z"/><path id="pol5e" d="M402.67 69.5V73h-10.5V56.54h3.94V69.5z"/><path id="pol5f" d="M411.72 59.9V73h-3.94V59.9h-4.62v-3.4h13.22v3.4z"/><path id="pol5g" d="M318.95 50.32c4.54 0 9.24 1.65 11.74 2.7a37.5 37.5 0 0 1-1.15 8.72c-1.77 6.9-5.33 12.22-10.59 15.86-5.25-3.64-8.8-8.97-10.58-15.86a37.57 37.57 0 0 1-1.15-8.73c2.5-1.04 7.18-2.7 11.73-2.7zm0-3.55c-7.45 0-15 3.86-15 3.86s-1.96 21.08 15 31.1c16.97-10.02 15-31.1 15-31.1s-7.54-3.86-15-3.86z"/></defs><g><g transform="translate(-274 -30)"><use fill="#4ca9fc" xlink:href="#pol5a"/></g><g transform="translate(-274 -30)"><use fill="#fff" xlink:href="#pol5b"/></g><g transform="translate(-274 -30)"><use fill="#fff" xlink:href="#pol5c"/></g><g transform="translate(-274 -30)"><use fill="#fff" xlink:href="#pol5d"/></g><g transform="translate(-274 -30)"><use fill="#fff" xlink:href="#pol5e"/></g><g transform="translate(-274 -30)"><use fill="#fff" xlink:href="#pol5f"/></g><g transform="translate(-274 -30)"><use fill="#fff" xlink:href="#pol5g"/></g></g></svg>